<svg viewBox="0 0 800 800" xmlns="http://www.w3.org/2000/svg"><path d="M262.324476227038,115.91128160137504 L261.9184353928025,197.19026021243673 M261.9184353928025,197.19026021243673 L117.45752594800092,203.27870167294614 M207.17284312348914,152.26479670417038 L117.45752594800092,203.27870167294614 M262.324476227038,115.91128160137504 L207.17284312348914,152.26479670417038 M267.6553724613176,114.48302013237026 L266.96524400001925,114.24810789680794 M266.96524400001925,114.24810789680794 L266.19548286653986,114.11551103581303 M266.19548286653986,114.11551103581303 L265.3918010746527,114.09309565225908 M265.3918010746527,114.09309565225908 L264.6019439402533,114.18220656879316 M264.6019439402533,114.18220656879316 L263.872812795116,114.37754311744544 M263.872812795116,114.37754311744544 L263.2477409903497,114.66751384073933 M263.2477409903497,114.66751384073933 L262.7638254079799,115.03488242133824 M262.7638254079799,115.03488242133824 L262.4498511065359,115.4578448116124 M262.4498511065359,115.4578448116124 L262.324476227038,115.91128160137504 M261.9184353928025,197.19026021243673 L261.88311021537794,204.26219256573629 M267.96565629604504,114.63934481871581 L267.6553724613176,114.48302013237026 M261.88311021537794,204.26219256573629 L261.29187243912196,322.6142140087868 M272.3996424359495,117.23834715235944 L267.96565629604504,114.63934481871581 M261.29187243912196,322.6142140087868 L261.25991884855245,329.0105580806282 M301.5965820958656,134.35226599888688 L272.3996424359495,117.23834715235944 M261.25991884855245,329.0105580806282 L261.25617309715267,329.7599247548626 M303.19308240378484,135.28806084827113 L301.5965820958656,134.35226599888688 M261.25617309715267,329.7599247548626 L260.84287902898836,412.4942050759014 M452.7225270975706,222.93542086497587 L303.19308240378484,135.28806084827113 M260.84287902898836,412.4942050759014 L260.91992134628345,412.85447154368376 M260.91992134628345,412.85447154368376 L261.11262259287565,413.1998358034216 M261.11262259287565,413.1998358034216 L261.41415475219526,413.5180531854317 M261.41415475219526,413.5180531854317 L261.8138149742777,413.79787194490376 M457.0094931697738,225.54506450986835 L452.7225270975706,222.93542086497587 M261.8138149742777,413.79787194490376 L262.39773379585506,414.0672644098937 M262.39773379585506,414.0672644098937 L263.07125693304334,414.25473485780435 M263.07125693304334,414.25473485780435 L263.8006062392955,414.35087707201683 M263.8006062392955,414.35087707201683 L264.54918737995325,414.35087967440415 M264.54918737995325,414.35087967440415 L265.2794618531855,414.25473225543766 M265.2794618531855,414.25473225543766 L265.9548110548446,414.0672592052406 M265.9548110548446,414.0672592052406 L266.54134738453934,413.79787194490376 M481.5416137775672,257.76498291077525 L478.7942775672715,248.97515960804287 M478.7942775672715,248.97515960804287 L473.6964876689253,240.54089582894537 M473.6964876689253,240.54089582894537 L466.3748011889989,232.66719870933565 M466.3748011889989,232.66719870933565 L457.0094931697738,225.54506450986835 M266.54134738453934,413.79787194490376 L271.05492997842435,411.13423653010966 M481.604675796309,258.14094831555917 L481.5841371060552,258.0155986676293 M481.5841371060552,258.0155986676293 L481.5631149339403,257.8902760099762 M481.5631149339403,257.8902760099762 L481.5416137775672,257.76498291077525 M271.05492997842435,411.13423653010966 L273.87679909994677,409.46894310362734 M481.58693633503793,268.82427661465346 L481.98039548609756,265.26516506314044 M481.98039548609756,265.26516506314044 L481.9862564103706,261.6994326164119 M481.9862564103706,261.6994326164119 L481.604675796309,258.14094831555917 M273.87679909994677,409.46894310362734 L302.34582155740054,392.6682925305779 M452.95820140193064,303.7862082892201 L461.96056538239066,297.83595221689944 M461.96056538239066,297.83595221689944 L469.44958910199324,291.2340407117534 M469.44958910199324,291.2340407117534 L475.2842403942928,284.1064313244803 M475.2842403942928,284.1064313244803 L479.3552111432491,276.5888686292429 M479.3552111432491,276.5888686292429 L481.58693633503793,268.82427661465346 M302.34582155740054,392.6682925305779 L452.95820140193064,303.7862082892201 M407.01746139215277,249.1526482099972 L412.2053222525236,252.9459840803881 M412.2053222525236,252.9459840803881 L415.6612082155264,257.3418017183614 M415.6612082155264,257.3418017183614 L417.1834972496488,262.0851383222938 M417.1834972496488,262.0851383222938 L416.6826111801137,266.90057154471225 M416.6826111801137,266.90057154471225 L414.18649064244,271.50816412900537 M414.18649064244,271.50816412900537 L409.83922430638995,275.6397545059551 M409.83922430638995,275.6397545059551 L403.89291166003267,279.0546314968869 M403.89291166003267,279.0546314968869 L396.6931296559013,281.55365639264204 M396.6931296559013,281.55365639264204 L388.6588490261671,282.99099217110825 M388.6588490261671,282.99099217110825 L380.2579676495571,283.28272214440784 M380.2579676495571,283.28272214440784 L371.9798907531163,282.4118078961457 M371.9798907531163,282.4118078961457 L364.3068128028142,280.42910736711264 M364.3068128028142,280.42910736711264 L357.6854514482904,277.45035438596216 M357.6854514482904,277.45035438596216 L352.5008974802692,273.6493225326547 M352.5008974802692,273.6493225326547 L349.054174615656,269.2475719701032 M349.054174615656,269.2475719701032 L347.5448057254708,264.5014246608585 M347.5448057254708,264.5014246608585 L348.05940914371104,259.68694684886816 M348.05940914371104,259.68694684886816 L350.56690175495146,255.08385691875458 M350.56690175495146,255.08385691875458 L354.9205896821902,250.95928493537363 M354.9205896821902,250.95928493537363 L360.86690233314243,247.552334252232 M360.86690233314243,247.552334252232 L368.0602627513055,245.06032775795578 M368.0602627513055,245.06032775795578 L376.0831713042142,243.62749463736748 M376.0831713042142,243.62749463736748 L384.4703353231963,243.33672007740097 M384.4703353231963,243.33672007740097 L392.73549206882126,244.20482361335002 M392.73549206882126,244.20482361335002 L400.3994069218413,246.1815912141958 M400.3994069218413,246.1815912141958 L407.01746139215277,249.1526482099972 M261.88311021537794,204.26219256573629 L107.7037152778372,215.99114443273655 M117.45752594800092,203.27870167294614 L113.48442930189935,206.00601618058835 M113.48442930189935,206.00601618058835 L110.46932820031236,209.10856575956922 M110.46932820031236,209.10856575956922 L108.51924115773528,212.47664402198058 M108.51924115773528,212.47664402198058 L107.7037152778372,215.99114443273655 M220.16786701274214,166.44199319156752 L220.0965005956601,144.91614928374466 M117.5743157046362,224.83101073633122 L117.45752594800092,203.27870167294614 M220.16786701274214,166.44199319156752 L117.5743157046362,224.83101073633122 M220.0965005956601,144.91614928374466 L215.4660038768205,147.5491413636929 M215.4660038768205,147.5491413636929 L215.13673365515137,147.73637092856663 M215.13673365515137,147.73637092856663 L207.17284312348914,152.26479670417038 M267.6553724613176,114.48302013237026 L215.13673365515137,147.73637092856663 M267.96565629604504,114.63934481871581 L215.4660038768205,147.5491413636929 M261.29187243912196,322.6142140087868 L103.50602286818742,584.7681827276094 M107.7037152778372,215.99114443273655 L103.50602286818742,584.7681827276094 M272.3996424359495,117.23834715235944 L220.0965005956601,144.91614928374466 M261.25991884855245,329.0105580806282 L111.6964864332619,596.9965955157273 M103.50602286818742,584.7681827276094 L104.5770256530601,589.1814920891505 M104.5770256530601,589.1814920891505 L107.35587966851949,593.3308508866879 M107.35587966851949,593.3308508866879 L111.6964864332619,596.9965955157273 M263.3786889336167,143.36215831701412 L256.632236993012,141.05367001917352 M256.632236993012,141.05367001917352 L249.11199544508958,139.73208604030856 M249.11199544508958,139.73208604030856 L241.25128707434743,139.47337693752308 M241.25128707434743,139.47337693752308 L233.5028993745704,140.29242960193085 M233.5028993745704,140.29242960193085 L226.31315090503767,142.14211295700858 M226.31315090503767,142.14211295700858 L220.0965005956601,144.91614928374466 M301.5965820958656,134.35226599888688 L263.3786889336167,143.36215831701412 M261.25617309715267,329.7599247548626 L113.12303963608338,597.8860937570074 M111.6964864332619,596.9965955157273 L113.12303963608338,597.8860937570074 M266.45918369288586,144.91614928374466 L263.3786889336167,143.36215831701412 M303.19308240378484,135.28806084827113 L266.45918369288586,144.91614928374466 M260.84287902898836,412.4942050759014 L203.54341472235416,650.8086744395941 M113.12303963608338,597.8860937570074 L203.54341472235416,650.8086744395941 M567.1154706492136,317.0066948398455 L266.45918369288586,144.91614928374466 M452.7225270975706,222.93542086497587 L567.1154706492136,317.0066948398455 M261.8138149742777,413.79787194490376 L205.62480120088912,652.0268992449746 M203.54341472235416,650.8086744395941 L205.62480120088912,652.0268992449746 M576.1674989348842,322.1879218876489 L567.1154706492136,317.0066948398455 M457.0094931697738,225.54506450986835 L576.1674989348842,322.1879218876489 M266.54134738453934,413.79787194490376 L211.94089390812758,655.7236758351912 M205.62480120088912,652.0268992449746 L211.94089390812758,655.7236758351912 M686.7365711648381,385.4757784440914 L576.1674989348842,322.1879218876489 M481.5416137775672,257.76498291077525 L686.7365711648381,385.4757784440914 M271.05492997842435,411.13423653010966 L216.63271177871198,658.4697727139876 M211.94089390812758,655.7236758351912 L216.63271177871198,658.4697727139876 M688.1715058691443,386.34999297326385 L686.7365711648381,385.4757784440914 M481.604675796309,258.14094831555917 L688.1715058691443,386.34999297326385 M273.87679909994677,409.46894310362734 L219.77610398016165,660.0910156181405 M216.63271177871198,658.4697727139876 L219.77610398016165,660.0910156181405 M687.0750993371535,412.5019106095496 L691.502987353337,409.2978629590435 M691.502987353337,409.2978629590435 L694.6337970883546,405.61767145356094 M694.6337970883546,405.61767145356094 L696.3232715362587,401.6318312881392 M696.3232715362587,401.6318312881392 L696.4939771318127,397.52479163918724 M696.4939771318127,397.52479163918724 L695.1387589271301,393.4864511717833 M695.1387589271301,393.4864511717833 L692.3210156814189,389.70332138703577 M692.3210156814189,389.70332138703577 L688.1715058691443,386.34999297326385 M481.58693633503793,268.82427661465346 L687.0750993371535,412.5019106095496 M302.34582155740054,392.6682925305779 L263.98504882363727,658.4697727139876 M219.77610398016165,660.0910156181405 L226.66452715405526,662.500205635481 M226.66452715405526,662.500205635481 L234.34695965353666,663.8798610686566 M234.34695965353666,663.8798610686566 L242.37895466196318,664.1499844666935 M242.37895466196318,664.1499844666935 L250.2957930610084,663.2948792065129 M250.2957930610084,663.2948792065129 L257.63936088684125,661.3641710439156 M257.63936088684125,661.3641710439156 L263.98504882363727,658.4697727139876 M568.3704154880013,481.5121302370765 L687.0750993371535,412.5019106095496 M452.95820140193064,303.7862082892201 L568.3704154880013,481.5121302370765 M263.98504882363727,658.4697727139876 L568.3704154880013,481.5121302370765 M406.938074864435,406.4347205020594 L400.3413399218437,403.4539530899882 M400.3413399218437,403.4539530899882 L392.7021052068697,401.4707234381469 M392.7021052068697,401.4707234381469 L384.46355991656526,400.5997817425235 M384.46355991656526,400.5997817425235 L376.1033992108045,400.891506977245 M376.1033992108045,400.891506977245 L368.1063240150345,402.3290243530725 M368.1063240150345,402.3290243530725 L360.9361318963758,404.8291764718778 M360.9361318963758,404.8291764718778 L355.00897957352856,408.2472607714104 M355.00897957352856,408.2472607714104 L350.6693304865111,412.38530734105984 M350.6693304865111,412.38530734105984 L348.16993581768975,417.0034297585171 M348.16993581768975,417.0034297585171 L347.65701259064167,421.83362433279603 M347.65701259064167,421.83362433279603 L349.16153871995584,426.5952592735303 M349.16153871995584,426.5952592735303 L352.5971702149222,431.0113682477377 M352.5971702149222,431.0113682477377 L357.765023727636,434.82479481276573 M357.765023727636,434.82479481276573 L364.36504427776117,437.8132584519395 M364.36504427776117,437.8132584519395 L372.0133831340671,439.8024212183285 M372.0133831340671,439.8024212183285 L380.26476544608926,440.67617371454935 M380.26476544608926,440.67617371454935 L388.6385552510937,440.38349303648545 M388.6385552510937,440.38349303648545 L396.64692935500955,438.94147286134944 M396.64692935500955,438.94147286134944 L403.8235017427587,436.434302120603 M403.8235017427587,436.434302120603 L409.7506540610699,433.00829126428346 M409.7506540610699,433.00829126428346 L414.08392287384345,428.86322608057526 M414.08392287384345,428.86322608057526 L416.57201863773594,424.24060086747625 M416.57201863773594,424.24060086747625 L417.0713127743487,419.40945085275195 M417.0713127743487,419.40945085275195 L415.55394963010724,414.6506267056368 M415.55394963010724,414.6506267056368 L412.1092139927155,410.24045084240123 M412.1092139927155,410.24045084240123 L406.938074864435,406.4347205020594 M406.938074864435,406.4347205020594 L407.01746139215277,249.1526482099972 M107.82486898266535,237.54920157171418 L107.7037152778372,215.99114443273655 M117.5743157046362,224.83101073633122 L113.60298407129193,227.55955892829772 M113.60298407129193,227.55955892829772 L110.58922779714169,230.66351159613694 M110.58922779714169,230.66351159613694 L108.6400175475244,234.03311263082404 M108.6400175475244,234.03311263082404 L107.82486898266535,237.54920157171418 M263.43101637519237,164.88729584730342 L263.3786889336167,143.36215831701412 M263.43101637519237,164.88729584730342 L256.68752604303285,162.5777580467843 M256.68752604303285,162.5777580467843 L249.17058816441846,161.2555731515224 M249.17058816441846,161.2555731515224 L241.31333553795037,160.99674640776522 M241.31333553795037,160.99674640776522 L233.56835705256518,161.8161715058399 M233.56835705256518,161.8161715058399 L226.38177531628435,163.6666958451932 M226.38177531628435,163.6666958451932 L220.16786701274214,166.44199319156752 M266.51015970508735,166.44199319156752 L263.43101637519237,164.88729584730342 M107.82486898266535,237.54920157171418 L103.63090724034754,606.4904136833927 M686.6013704187064,407.1099052430927 L266.51015970508735,166.44199319156752 M103.63090724034754,606.4904136833927 L104.70145278922308,610.9056576606997 M104.70145278922308,610.9056576606997 L107.47908295147465,615.0568347190097 M107.47908295147465,615.0568347190097 L111.8177632730152,618.7241851637978 M688.0356628434722,407.9845094215939 L686.6013704187064,407.1099052430927 M111.8177632730152,618.7241851637978 L113.24368166668705,619.6140729844922 M686.9395977438678,434.14807039791486 L691.365534814347,430.9425975880438 M691.365534814347,430.9425975880438 L694.4949734867234,427.2607686712185 M694.4949734867234,427.2607686712185 L696.1837197177815,423.2731545447316 M696.1837197177815,423.2731545447316 L696.3543730095662,419.1642863851033 M696.3543730095662,419.1642863851033 L694.9997801673512,415.12414739126814 M694.9997801673512,415.12414739126814 L692.1833103950739,411.339332200272 M692.1833103950739,411.339332200272 L688.0356628434722,407.9845094215939 M113.24368166668705,619.6140729844922 L216.70715677799654,680.2242180646814 M264.03822382312626,680.2242180646814 L686.9395977438678,434.14807039791486 M216.70715677799654,680.2242180646814 L219.84914182861147,681.8461673682693 M219.84914182861147,681.8461673682693 L226.7344774703248,684.2564069276387 M226.7344774703248,684.2564069276387 L234.41346229548876,685.6366632997351 M234.41346229548876,685.6366632997351 L242.44184934234966,685.9069043477409 M242.44184934234966,685.9069043477409 L250.35512872439148,685.0514266445239 M250.35512872439148,685.0514266445239 L257.6953928759219,683.1198774592409 M257.6953928759219,683.1198774592409 L264.03822382312626,680.2242180646814 M103.63090724034754,606.4904136833927 L103.50602286818742,584.7681827276094 M111.8177632730152,618.7241851637978 L111.6964864332619,596.9965955157273 M113.24368166668705,619.6140729844922 L113.12303963608338,597.8860937570074 M266.51015970508735,166.44199319156752 L266.45918369288586,144.91614928374466 M216.70715677799654,680.2242180646814 L216.63271177871198,658.4697727139876 M686.6013704187064,407.1099052430927 L686.7365711648381,385.4757784440914 M688.0356628434722,407.9845094215939 L688.1715058691443,386.34999297326385 M219.84914182861147,681.8461673682693 L219.77610398016165,660.0910156181405 M686.9395977438678,434.14807039791486 L687.0750993371535,412.5019106095496 M264.03822382312626,680.2242180646814 L263.98504882363727,658.4697727139876" stroke="black"  stroke-width="4"  fill="red"/>
<path d="M406.938074864435,406.4347205020594 L407.0202080086767,243.7110002239816 M407.0202080086767,243.7110002239816 L412.20864740957643,247.50390442377608 M412.20864740957643,247.50390442377608 L415.6649191541979,251.8992219964507 M415.6649191541979,251.8992219964507 L417.18737861707854,256.64201920142625 M417.18737861707854,256.64201920142625 L416.6864374722618,261.4569050384856 M416.6864374722618,261.4569050384856 L414.1900392948945,266.06397406349487 M414.1900392948945,266.06397406349487 L409.8422886725335,270.19509513561354 M409.8422886725335,270.19509513561354 L403.89531311550917,273.6095843515664 M403.89531311550917,273.6095843515664 L396.6947281018898,276.1083255396976 M396.6947281018898,276.1083255396976 L388.6595511538407,277.54549816735664 M388.6595511538407,277.54549816735664 L380.2577324581627,277.83719502895156 M380.2577324581627,277.83719502895156 L371.9787319777994,276.9663796328353 M371.9787319777994,276.9663796328353 L364.3047981005006,274.9839041740901 M364.3047981005006,274.9839041740901 L357.6826983943862,272.00548940028943 M357.6826983943862,272.00548940028943 L352.49756662320095,268.20488923461755 M352.49756662320095,268.20488923461755 L349.0504600201382,263.8036387505008 M349.0504600201382,263.8036387505008 L347.5409235821011,259.058030846436 M347.5409235821011,259.058030846436 L348.05558513428815,254.24410041768948 M348.05558513428815,254.24410041768948 L350.5633579209434,249.64153403689036 M350.5633579209434,249.64153403689036 L354.9175315663669,245.51743134280147 M354.9175315663669,245.51743134280147 L360.86450712798825,242.1108684170897 M360.86450712798825,242.1108684170897 L368.05866912376797,239.61914561489942 M368.05866912376797,239.61914561489942 L376.0824714592688,238.18647563514992 M376.0824714592688,238.18647563514992 L384.47056973864966,237.89573418477303 M384.47056973864966,237.89573418477303 L392.73664718728764,238.76373887479875 M392.73664718728764,238.76373887479875 L400.40141592413596,240.74028141849146 M400.40141592413596,240.74028141849146 L407.0202080086767,243.7110002239816 M406.938074864435,406.4347205020594 L400.3413399218437,403.4539530899882 M400.3413399218437,403.4539530899882 L392.7021052068697,401.4707234381469 M392.7021052068697,401.4707234381469 L384.46355991656526,400.5997817425235 M384.46355991656526,400.5997817425235 L376.1033992108045,400.891506977245 M376.1033992108045,400.891506977245 L368.1063240150345,402.3290243530725 M368.1063240150345,402.3290243530725 L360.9361318963758,404.8291764718778 M360.9361318963758,404.8291764718778 L355.00897957352856,408.2472607714104 M355.00897957352856,408.2472607714104 L350.6693304865111,412.38530734105984 M350.6693304865111,412.38530734105984 L348.16993581768975,417.0034297585171 M348.16993581768975,417.0034297585171 L347.65701259064167,421.83362433279603 M347.65701259064167,421.83362433279603 L349.16153871995584,426.5952592735303 M349.16153871995584,426.5952592735303 L352.5971702149222,431.0113682477377 M352.5971702149222,431.0113682477377 L357.765023727636,434.82479481276573 M357.765023727636,434.82479481276573 L364.36504427776117,437.8132584519395 M364.36504427776117,437.8132584519395 L372.0133831340671,439.8024212183285 M372.0133831340671,439.8024212183285 L380.26476544608926,440.67617371454935 M380.26476544608926,440.67617371454935 L388.6385552510937,440.38349303648545 M388.6385552510937,440.38349303648545 L396.64692935500955,438.94147286134944 M396.64692935500955,438.94147286134944 L403.8235017427587,436.434302120603 M403.8235017427587,436.434302120603 L409.7506540610699,433.00829126428346 M409.7506540610699,433.00829126428346 L414.08392287384345,428.86322608057526 M414.08392287384345,428.86322608057526 L416.57201863773594,424.24060086747625 M416.57201863773594,424.24060086747625 L417.0713127743487,419.40945085275195 M417.0713127743487,419.40945085275195 L415.55394963010724,414.6506267056368 M415.55394963010724,414.6506267056368 L412.1092139927155,410.24045084240123 M412.1092139927155,410.24045084240123 L406.938074864435,406.4347205020594 M358.9371447968798,434.14807039791486 L365.2228035121134,436.99405136564434 M365.2228035121134,436.99405136564434 L372.5067294066372,438.88835695554417 M372.5067294066372,438.88835695554417 L380.36489769884594,439.720437964306 M380.36489769884594,439.720437964306 L388.33962494907513,439.4417163324293 M388.33962494907513,439.4417163324293 L395.9663917433848,438.0684665074334 M395.9663917433848,438.0684665074334 L402.80107905014586,435.6808449750011 M402.80107905014586,435.6808449750011 L408.44598645949736,432.4181573860817 M408.44598645949736,432.4181573860817 L412.5730530035659,428.47063490461665 M412.5730530035659,428.47063490461665 L414.94292381774414,424.0682366522743 M414.94292381774414,424.0682366522743 L415.4187508873104,419.4671637176236 M415.4187508873104,419.4671637176236 L413.97393463485923,414.9348862627748 M413.97393463485923,414.9348862627748 L410.69344069965814,410.73458418793484 M410.69344069965814,410.73458418793484 L405.7686205884699,407.10990524309267 M405.7686205884699,407.10990524309267 L399.4859420154825,404.2709049795915 M399.4859420154825,404.2709049795915 L392.21027384590906,402.38198089799505 M392.21027384590906,402.38198089799505 L384.36374911072187,401.5524493668201 M384.36374911072187,401.5524493668201 L376.4013838524139,401.8303043840332 M376.4013838524139,401.8303043840332 L368.784865501194,403.1994700390029 M368.784865501194,403.1994700390029 L361.95596528924955,405.58072547667 M361.95596528924955,405.58072547667 L356.31105787616633,408.83622344480693 M356.31105787616633,408.83622344480693 L352.17820423304136,412.7773798355044 M352.17820423304136,412.7773798355044 L349.79808497842,417.175693919641 M349.79808497842,417.175693919641 L349.30989592417905,421.77590024196354 M349.30989592417905,421.77590024196354 L350.7430686251953,426.31072716968043 M350.7430686251953,426.31072716968043 L354.0153048345464,430.51641075139753 M354.0153048345464,430.51641075139753 L358.9371447968798,434.14807039791486 M358.8587440830848,271.3310408464434 L365.1654300649636,274.16745147107406 M365.1654300649636,274.16745147107406 L372.47373078555245,276.0553882011316 M372.47373078555245,276.0553882011316 L380.35820014203574,276.88467197447943 M380.35820014203574,276.88467197447943 L388.35961949448347,276.60688730959555 M388.35961949448347,276.60688730959555 L396.01191108817517,275.2382541925333 M396.01191108817517,275.2382541925333 L402.86946659630934,272.85866079901234 M402.86946659630934,272.85866079901234 L408.53325328326434,269.6069461964067 M408.53325328326434,269.6069461964067 L412.6741129956358,265.67270381890546 M412.6741129956358,265.67270381890546 L415.05189258725994,261.2851209813864 M415.05189258725994,261.2851209813864 L415.52929030646237,256.6995377368753 M415.52929030646237,256.6995377368753 L414.0796223677991,252.18252403962333 M414.0796223677991,252.18252403962333 L410.78814304573774,247.9963727232918 M410.78814304573774,247.9963727232918 L405.84684698118025,244.383909155785 M405.84684698118025,244.383909155785 L399.543161108928,241.55447900064672 M399.543161108928,241.55447900064672 L392.2431734412893,239.67192359794103 M392.2431734412893,239.67192359794103 L384.3704256554349,238.84518921645733 M384.3704256554349,238.84518921645733 L376.38145112214346,239.1221072958163 M376.38145112214346,239.1221072958163 L368.73947663766523,240.4866563801786 M368.73947663766523,240.4866563801786 L361.8877469987416,242.85988389299746 M361.8877469987416,242.85988389299746 L356.2239603080047,246.10440911658858 M356.2239603080047,246.10440911658858 L352.0772747221258,250.0322856174089 M352.0772747221258,250.0322856174089 L349.68917802397044,254.4157844240755 M349.68917802397044,254.4157844240755 L349.19933549295587,259.00050108540376 M349.19933549295587,259.00050108540376 L350.6372818666518,263.52006416978224 M350.6372818666518,263.52006416978224 L353.9204481348513,267.71159681201067 M353.9204481348513,267.71159681201067 L358.8587440830848,271.3310408464434 M358.9371447968798,434.14807039791486 L358.8587440830848,271.3310408464434" stroke="black"  stroke-width="4"  fill="red"/>
<path d="M366.86569674547957,291.0248432368959 L366.8570400359405,263.77147417885294 M424.69764423510134,282.1267336005404 L424.72127741553857,254.87842129532856 M366.86569674547957,291.0248432368959 L424.69764423510134,282.1267336005404 M366.8570400359405,263.77147417885294 L424.72127741553857,254.87842129532856 M324.57643860025354,266.7302242312728 L324.544196159858,239.49067031396885 M324.57643860025354,266.7302242312728 L366.86569674547957,291.0248432368959 M324.544196159858,239.49067031396885 L366.8570400359405,263.77147417885294 M440.11291355204975,248.97622522157192 L440.1451086499382,221.74678433526947 M424.69764423510134,282.1267336005404 L440.11291355204975,248.97622522157192 M424.72127741553857,254.87842129532856 L440.1451086499382,221.74678433526947 M440.11291355204975,248.97622522157192 L397.82365533283905,224.76590018018402 M397.82365533283905,224.76590018018402 L340.11900015260125,233.62186279842894 M340.11900015260125,233.62186279842894 L324.57643860025354,266.7302242312728 M358.8587440830848,271.3310408464434 L365.1654300649636,274.16745147107406 M365.1654300649636,274.16745147107406 L372.47373078555245,276.0553882011316 M372.47373078555245,276.0553882011316 L380.35820014203574,276.88467197447943 M380.35820014203574,276.88467197447943 L388.35961949448347,276.60688730959555 M388.35961949448347,276.60688730959555 L396.01191108817517,275.2382541925333 M396.01191108817517,275.2382541925333 L402.86946659630934,272.85866079901234 M402.86946659630934,272.85866079901234 L408.53325328326434,269.6069461964067 M408.53325328326434,269.6069461964067 L412.6741129956358,265.67270381890546 M412.6741129956358,265.67270381890546 L415.05189258725994,261.2851209813864 M415.05189258725994,261.2851209813864 L415.52929030646237,256.6995377368753 M415.52929030646237,256.6995377368753 L414.0796223677991,252.18252403962333 M414.0796223677991,252.18252403962333 L410.78814304573774,247.9963727232918 M410.78814304573774,247.9963727232918 L405.84684698118025,244.383909155785 M405.84684698118025,244.383909155785 L399.543161108928,241.55447900064672 M399.543161108928,241.55447900064672 L392.2431734412893,239.67192359794103 M392.2431734412893,239.67192359794103 L384.3704256554349,238.84518921645733 M384.3704256554349,238.84518921645733 L376.38145112214346,239.1221072958163 M376.38145112214346,239.1221072958163 L368.73947663766523,240.4866563801786 M368.73947663766523,240.4866563801786 L361.8877469987416,242.85988389299746 M361.8877469987416,242.85988389299746 L356.2239603080047,246.10440911658858 M356.2239603080047,246.10440911658858 L352.0772747221258,250.0322856174089 M352.0772747221258,250.0322856174089 L349.68917802397044,254.4157844240755 M349.68917802397044,254.4157844240755 L349.19933549295587,259.00050108540376 M349.19933549295587,259.00050108540376 L350.6372818666518,263.52006416978224 M350.6372818666518,263.52006416978224 L353.9204481348513,267.71159681201067 M353.9204481348513,267.71159681201067 L358.8587440830848,271.3310408464434 M340.11900015260125,233.62186279842894 L340.09546165734645,206.40117978533692 M340.09546165734645,206.40117978533692 L324.544196159858,239.49067031396885 M397.82365533283905,224.76590018018402 L397.83226469970583,197.55027340530688 M440.1451086499382,221.74678433526947 L397.83226469970583,197.55027340530688 M397.83226469970583,197.55027340530688 L340.09546165734645,206.40117978533692 M358.9371447968798,434.14807039791486 L358.8587440830848,271.3310408464434 M358.9371447968798,434.14807039791486 L365.2228035121134,436.99405136564434 M365.2228035121134,436.99405136564434 L372.5067294066372,438.88835695554417 M372.5067294066372,438.88835695554417 L380.36489769884594,439.720437964306 M380.36489769884594,439.720437964306 L388.33962494907513,439.4417163324293 M388.33962494907513,439.4417163324293 L395.9663917433848,438.0684665074334 M395.9663917433848,438.0684665074334 L402.80107905014586,435.6808449750011 M402.80107905014586,435.6808449750011 L408.44598645949736,432.4181573860817 M408.44598645949736,432.4181573860817 L412.5730530035659,428.47063490461665 M412.5730530035659,428.47063490461665 L414.94292381774414,424.0682366522743 M414.94292381774414,424.0682366522743 L415.4187508873104,419.4671637176236 M415.4187508873104,419.4671637176236 L413.97393463485923,414.9348862627748 M413.97393463485923,414.9348862627748 L410.69344069965814,410.73458418793484 M410.69344069965814,410.73458418793484 L405.7686205884699,407.10990524309267 M405.7686205884699,407.10990524309267 L399.4859420154825,404.2709049795915 M399.4859420154825,404.2709049795915 L392.21027384590906,402.38198089799505 M392.21027384590906,402.38198089799505 L384.36374911072187,401.5524493668201 M384.36374911072187,401.5524493668201 L376.4013838524139,401.8303043840332 M376.4013838524139,401.8303043840332 L368.784865501194,403.1994700390029 M368.784865501194,403.1994700390029 L361.95596528924955,405.58072547667 M361.95596528924955,405.58072547667 L356.31105787616633,408.83622344480693 M356.31105787616633,408.83622344480693 L352.17820423304136,412.7773798355044 M352.17820423304136,412.7773798355044 L349.79808497842,417.175693919641 M349.79808497842,417.175693919641 L349.30989592417905,421.77590024196354 M349.30989592417905,421.77590024196354 L350.7430686251953,426.31072716968043 M350.7430686251953,426.31072716968043 L354.0153048345464,430.51641075139753 M354.0153048345464,430.51641075139753 L358.9371447968798,434.14807039791486" stroke="black"  stroke-width="4"  fill="red"/></svg>